<svg id="Layer_1" data-name="Layer 1" xmlns="http://www.w3.org/2000/svg" viewBox="0 0 40.61 41.53"><defs><style>.cls-1{fill:#43af5c;}.cls-2{fill:#dc362f;}</style></defs><title>Artboard 1</title><path class="cls-1" d="M.05,38.87C.18,28.47.28,18.08,0,7.68c.36-2.22,2-3,3.89-3,7.4-.08,14.79,0,22.43,0,0,2.92.41,5.55,2.62,7.46a8.15,8.15,0,0,0,7.68,1.8c0,8.19.06,16.15,0,24.12,0,2.36-1.38,3.4-4.07,3.45-4,.07-8.09,0-12.14,0-5.28,0-10.56,0-15.85,0C2.49,41.53.69,41.21.05,38.87Z"/><path class="cls-2" d="M34.15,0a6.49,6.49,0,0,1,6.46,6,6.35,6.35,0,1,1-12.69.25A6.53,6.53,0,0,1,34.15,0Z"/></svg>