<svg id="Layer_1" data-name="Layer 1" xmlns="http://www.w3.org/2000/svg" viewBox="0 0 44.58 45.08"><defs><style>.cls-1{fill:#030303;}</style></defs><title>Artboard 1</title><path class="cls-1" d="M37.81.1c.8.4,1.63.75,2.41,1.21C44.76,4,45.66,10,41.77,13.54a7,7,0,0,0-2.4,6c.13,6,0,11.91,0,17.87a22.46,22.46,0,0,1-.12,3.09A4,4,0,0,1,35.71,44,11,11,0,0,1,34,44.1c-9.17,0-18.33,0-27.5,0C4,44.13,2,43.46,1.28,40.73V9C2,6.27,4.1,5.65,6.57,5.66q9.93,0,19.86,0c1,0,2.14.35,2.69-.91,1-2.37,3.19-3.44,5.25-4.63ZM2.72,25c0,4.57,0,9.14,0,13.72,0,3,.8,3.8,3.89,3.87,2.63.07,5.26,0,7.89,0,6.17,0,12.34,0,18.52,0,4.25,0,4.8-.55,4.81-4.68s0-8,0-12c0-2.74,0-5.49,0-8.23,0-.81,0-1.63-1.16-1.66-4.87-.13-7.54-2.76-8.32-7.44-.21-1.24-1-1.33-2-1.33-6.63,0-13.26-.05-19.89,0-3.09,0-3.73.84-3.76,4C2.7,15.84,2.72,20.41,2.72,25ZM36.17,1.73a6.38,6.38,0,0,0,.29,12.76A6.45,6.45,0,0,0,42.62,8,6.57,6.57,0,0,0,36.17,1.73Z"/></svg>