<?xml version="1.0" encoding="UTF-8"?>
<svg width="189px" height="106px" viewBox="0 0 189 106" version="1.1" xmlns="http://www.w3.org/2000/svg" xmlns:xlink="http://www.w3.org/1999/xlink">
    <!-- Generator: Sketch 40.1 (33804) - http://www.bohemiancoding.com/sketch -->
    <title>Logo</title>
    <desc>Created with Sketch.</desc>
    <defs>
        <polygon id="path-1" points="10.8937099 20.1712687 10.8937099 0.252906364 0.0264984733 0.252906364 0.0264984733 20.1712687 10.8937099 20.1712687"></polygon>
    </defs>
    <g id="Page-1" stroke="none" stroke-width="1" fill="none" fill-rule="evenodd">
        <g id="Login-Portrait" transform="translate(-66.000000, -165.000000)">
            <g id="Group-3" transform="translate(60.000000, 165.000000)">
                <g id="Logo" transform="translate(6.000000, 0.000000)">
                    <g id="Group-44" transform="translate(177.938931, 44.638045)">
                        <mask id="mask-2" fill="white">
                            <use xlink:href="#path-1"></use>
                        </mask>
                        <g id="Clip-43"></g>
                        <path d="M0.0264984733,20.1698245 C0.367948855,19.36567 0.401132061,19.0187609 0.57570458,18.9185427 C2.84370458,17.6104064 2.23967405,15.4234336 2.25506336,13.4470155 C2.28872748,9.15401545 2.28103282,4.86053364 2.29786489,0.567533636 C2.2983458,0.44997 2.38587252,0.33337 2.41809389,0.252906364 L10.893758,0.252906364 C8.1092542,2.83689727 9.67078855,5.95956091 9.42167405,8.71989727 C9.21488015,11.0133518 9.36204046,13.3405336 9.38271985,15.6527791 C9.39185725,16.7219336 9.07012443,17.9202155 10.4719947,18.53357 C10.5946282,18.5875336 10.3118496,20.0946609 10.1945061,20.0980336 C6.94880382,20.1876518 3.70021603,20.1698245 0.0264984733,20.1698245" id="Fill-42" fill="#FFFFFF" mask="url(#mask-2)"></path>
                    </g>
                    <path d="M152.000744,34.2084543 C152.945264,32.6955857 154.385548,31.2891861 154.729395,29.6515245 C155.32525,26.8136155 155.040547,26.75387 157.967402,26.75917 C158.427158,26.7601336 158.888837,26.7341155 159.346669,26.76447 C163.848524,27.0622336 165.932815,30.26247 164.421776,34.5154791 C164.316937,34.8108336 164.375127,35.1644882 164.357815,35.4911609 L164.30299,35.4343064 C166.915326,32.0215882 165.69957,27.5421245 161.663723,26.4141882 C159.558753,25.8258882 157.28883,25.8278155 154.919356,25.5420973 C153.961853,22.3327064 151.961723,19.7622064 148.202402,18.7951973 C142.985425,17.4533336 138.666318,19.5179245 134.668944,22.4170245 C130.899524,25.1508609 127.372967,28.2181155 123.677127,31.0569882 C122.298341,32.1160245 120.776242,33.0020882 119.259433,33.86117 C117.746952,34.7173609 116.213792,35.5908973 114.589738,36.1787155 C113.04696,36.7361791 111.374334,36.9332427 109.758937,37.2893064 C109.811837,37.4921518 109.864738,37.6954791 109.91812,37.8983245 C112.673769,37.1129609 115.724219,36.8363973 118.124952,35.4386427 C123.446288,32.3405518 128.395395,28.6093518 133.583998,25.2737245 C137.18654,22.9581064 140.950669,20.9494064 145.474166,21.1903155 C148.102853,21.3300427 150.399708,22.2691064 152.292112,24.03497 C153.774295,25.41827 153.537685,26.3134882 151.864578,27.2462882 C150.334784,28.0991064 148.881937,29.0902064 147.394944,30.0205973 C147.464196,30.1415336 147.533929,30.26247 147.603662,30.3829245 C149.591769,29.3262973 151.579876,28.2691882 153.852204,27.06127 C153.9657,29.8991791 153.275585,32.1449336 152.058868,34.2658973 C152.058868,34.2658973 152.054638,34.2617685 152.048459,34.2557253 C152.055275,34.262468 152.060198,34.2673817 152.060744,34.2680655 C151.661102,34.5648655 151.218179,34.8168564 150.864705,35.1613564 C146.838476,39.0872109 140.437484,40.3982382 135.491263,37.8725473 C133.112171,36.6574018 132.022896,33.28612 133.658011,31.1405836 C135.817805,28.3065291 138.761011,26.9487655 142.386156,27.3062745 L142.360667,27.3313291 C142.192347,27.1463109 142.038453,26.8167473 141.85282,26.7974745 C138.007415,26.3994927 134.754499,27.8651836 132.390797,30.7021291 C131.239003,32.0844655 129.962652,33.9307927 131.025476,36.2305109 C132.608652,39.6552745 136.733469,41.69192 140.466339,40.9513655 C143.493705,40.3505382 146.291675,39.2915018 148.742423,37.4654109 C149.960583,36.5576655 150.921453,35.3034927 152.000629,34.20832 C152.000656,34.2083542 152.000695,34.2083991 152.000744,34.2084543 Z M40.7721793,33.5040476 C40.2501326,31.5173152 39.7272534,29.5274048 39.064184,27.0023436 C41.3826802,28.0305436 43.0423214,28.76628 44.7019626,29.5020164 C43.1755351,28.4598436 41.6491076,27.4176709 40.0808405,26.3465891 C40.9965046,23.3805164 44.046955,21.3761527 47.7182679,21.1728255 C51.9628328,20.93818 55.6365504,22.6582709 59.0164282,24.7387618 C64.2800542,27.9785073 69.2594588,31.6836891 74.3456267,35.2115618 C75.9239931,36.3067345 81.6791153,37.6163164 83.6258634,37.1995436 C77.5672832,36.6141345 72.8711382,33.4432891 68.3231153,29.9607073 C63.4091153,26.1986709 59.0313366,21.73848 53.0881763,19.3664891 C46.8886878,16.8918709 40.2111687,19.1419618 38.164871,26.1451891 C31.0208634,24.9464255 27.2480771,27.3506982 27.7992069,32.5442164 C28.1675885,31.6542982 28.4566191,30.5172073 29.0592069,29.5829618 C30.8554282,26.7980527 33.6933137,26.6491709 36.6341153,26.7315618 C37.8642985,26.7657709 38.1605427,27.19218 38.4688099,28.4087709 C38.917941,30.1843035 39.9621869,31.8087657 40.7608295,33.4957829 C40.7496984,33.4876784 40.7385659,33.4795759 40.7274321,33.4714755 C40.8741115,33.81983 40.9462489,34.2308209 41.1790122,34.5069027 C44.4381802,38.3768664 51.3340351,42.1663664 57.554684,40.5754027 C61.787226,39.4927573 63.7104092,35.6131573 61.6516076,31.8183573 C60.9456229,30.5169664 59.7341954,29.3288027 58.4761191,28.5260936 C56.2595771,27.1109936 53.826142,26.0485845 51.0704931,27.1143664 C54.1425847,27.1996482 56.9554626,27.9744118 59.1330504,30.2987027 C60.9706305,32.2597027 60.8701191,35.5861755 58.9729053,37.2643482 C56.6914397,39.2812391 49.7681725,39.8502664 47.148142,38.1133118 C44.9642746,36.665514 42.8923233,35.0481016 40.7721793,33.5040476 Z M92.085513,10.2520309 C91.3083527,12.2718127 90.1373221,12.9651491 88.7099634,12.81964 C87.0594595,12.6514855 85.2666046,12.3084309 84.5904366,10.4775218 C84.3822,9.91331273 84.6491084,8.77814909 85.1016504,8.42690364 C88.3473527,5.90940364 91.7507954,5.89591273 94.6180168,9.25852182 C94.943116,9.63964 95.2533069,10.0332855 95.8943679,10.3956127 C93.7937267,6.52372182 93.2954977,2.93369455 97.2577649,0.000385454545 C101.66536,3.02620364 100.015337,7.01951273 98.4100397,10.8075673 C99.6964901,9.67095818 100.878582,8.58542182 102.104918,7.55192182 C104.33204,5.67379455 106.536078,6.67501273 108.621811,7.79042182 C110.66378,8.88222182 110.5902,10.9246491 108.539574,12.0482491 C107.137223,12.8167491 105.630994,13.2624309 104.110337,12.4259945 C103.544299,12.1142582 103.136963,11.5148764 102.657009,11.0465491 C103.231223,10.5970127 103.752055,10.0294309 104.397444,9.73793091 C104.855276,9.53171273 105.480467,9.69794 106.020536,9.69794 C104.268078,8.41919455 102.968162,8.55410364 101.173864,10.1527764 C100.057658,11.1472491 99.862887,12.1735218 100.984864,13.2561673 C99.6190626,14.69584 99.8436504,15.25764 102.312192,16.4621855 C102.434826,15.9673582 102.548803,15.5062582 102.687788,14.9454218 C103.152834,14.9141036 103.725124,14.7242673 104.172856,14.8837491 C104.737452,15.0846673 105.201055,15.5708218 105.70794,15.9341127 C105.197208,16.4983218 104.763902,17.43594 104.161795,17.5616945 C101.611498,18.0941036 100.54146,17.4190764 98.3417496,14.3995218 C97.6607725,16.4645945 100.978612,17.9596764 99.0770702,20.42514 C101.046421,20.42514 102.873421,20.3837036 104.698017,20.4367036 C106.523093,20.4901855 107.729231,19.4484945 108.408284,18.0131582 C108.715589,17.3636673 108.235635,16.2709036 107.949009,15.4359127 C107.793673,14.9834855 107.294482,14.6500673 106.951108,14.2631673 C108.452047,13.0167036 109.791398,11.9046673 111.249055,10.69434 C112.194055,12.1369036 113.033253,13.4180582 113.889765,14.7252309 C112.465292,15.8011309 110.980223,16.9232855 109.388872,18.12494 C109.483131,18.4318582 109.605765,19.0004036 109.827467,19.5270309 C110.789299,21.8161491 113.1102,22.7638855 115.336841,21.7043673 C116.38091,21.2076127 117.402376,20.5981127 118.296879,19.8710491 C119.186574,19.1483218 119.904101,18.2135945 120.756765,17.30874 C120.000284,16.3740127 119.214467,15.4031491 118.327658,14.3070127 C119.493398,13.2947127 120.500918,12.2785582 121.664253,11.4936764 C122.027345,11.2489127 123.039192,11.4199582 123.356116,11.7663855 C124.081818,12.5594582 124.561773,13.57754 125.170131,14.5493673 C124.827719,14.9145855 124.572353,15.3438855 124.195315,15.5640764 C120.304704,17.8406673 119.501574,21.8898673 118.440673,25.7362218 C117.511544,29.1046127 117.61446,29.1349673 114.239872,29.1349673 C101.366711,29.1359309 88.4940321,29.1354491 75.5756656,29.1354491 C74.7061695,26.4411218 73.6202611,23.8132855 73.0397954,21.0775218 C72.4059481,18.0902491 70.3380092,16.4294218 68.1373374,14.7228218 C69.0140473,13.4064945 69.8599786,12.13594 70.7751618,10.7617945 C72.1698183,11.9297218 73.4567496,13.0085127 74.7528183,14.0940491 C74.6268183,14.3653127 74.5623756,14.5349127 74.4734061,14.69054 C73.8939023,15.7042855 72.5795588,17.0981855 72.8690702,17.6508309 C73.5827496,19.0134127 74.9009405,20.1794127 76.2109557,21.0837855 C79.7177954,23.5054036 82.2257725,22.3254309 83.4535511,17.8083855 C82.2200015,16.7907855 80.9729863,15.7621036 79.6908641,14.7045127 C80.4507115,13.4691309 81.2168107,12.2241127 82.0935206,10.7984127 C83.6752534,11.9673036 85.1622458,13.0663309 86.6925206,14.19764 C86.3727115,14.5469582 86.0403985,14.7979855 85.8586122,15.1309218 C85.3599023,16.0463764 84.2985206,17.4214855 84.5875511,17.8483764 C85.3161389,18.9247582 86.5838336,20.1090673 87.7813145,20.29264 C90.2080168,20.6650855 92.7309023,20.40394 95.4668336,20.40394 C95.0551695,19.3612855 94.8445282,18.8279127 94.8305817,18.79274 C95.5105969,17.0244673 96.0405664,15.6455036 96.5705359,14.2660582 C96.4281847,14.1581309 96.2853527,14.0497218 96.1430015,13.9417945 C95.4750092,16.8625764 93.5239328,17.8782491 90.8880321,17.57904 C90.1281847,17.4927945 89.4375893,16.79994 88.7152534,16.3855764 C89.1423069,15.8796673 89.5001084,15.0514218 90.0118031,14.9410855 C90.8514824,14.7604036 92.1009023,14.4062673 92.2759557,15.9904855 C92.2927878,16.14274 92.4486046,16.2795764 92.7063756,16.6857491 C93.3695588,15.8772582 93.9404061,15.1815127 94.5728107,14.4110855 C94.2414595,14.1210309 93.8336427,13.7635218 93.2906885,13.2879673 C94.759887,12.2347127 94.4232458,11.2903491 93.4022611,10.1889127 C92.0124137,8.68997636 90.6980702,8.48905818 88.3637038,9.70757636 C89.4885664,9.87187636 90.6355511,10.0400309 92.085513,10.2520309 Z M98.5859588,105.326177 C96.0539359,105.326177 93.7575618,105.354123 91.4635924,105.298714 C91.0798214,105.289559 90.5532183,105.015405 90.3483481,104.698368 C88.1765313,101.332386 86.0465542,97.9394227 83.9247527,94.5411591 C80.5857527,89.1929773 77.3256229,83.7937227 73.8793786,78.5163682 C73.1782031,77.4428773 71.7883557,76.8295227 70.7433252,75.9709227 C70.2282641,75.5474045 69.7747603,75.0492045 69.2933634,74.5847318 C69.8122718,74.1910864 70.2840504,73.6899955 70.8640351,73.4351136 C71.3747679,73.2110682 72.0057298,73.2043227 72.5837908,73.20095 C76.0814931,73.1826409 79.5844855,73.0939864 83.074974,73.2582864 C84.0243023,73.3030955 85.2987298,73.8962136 85.8051344,74.6536318 C88.5362565,78.7351136 91.0519282,82.9601773 93.6835008,87.1091136 C95.1979053,89.4974864 96.8027221,91.8280409 98.332516,94.2072591 C98.5253634,94.5074318 98.573455,94.9434773 98.5753786,95.31785 C98.5936534,98.5527773 98.5859588,101.787705 98.5859588,105.326177 Z M151.656197,105.326081 C150.635212,105.326081 149.913357,105.325599 149.191983,105.326081 C143.878342,105.329935 143.588831,104.951226 140.988998,100.400454 C138.268456,95.6381627 135.164624,91.0960627 132.242098,86.4494082 C130.728655,84.04369 129.186357,81.6529082 127.768617,79.1908173 C126.897197,77.6774264 125.821869,76.5499718 124.155014,75.9192718 C123.597151,75.7077536 123.227327,74.9985173 122.771418,74.5166991 C123.255701,74.1721991 123.706319,73.6041355 124.230037,73.5265627 C125.703082,73.3073355 127.204983,73.2345809 128.697266,73.2061536 C131.136953,73.1594173 133.593953,73.3656355 136.012479,73.1348445 C137.70338,72.9729536 138.557006,73.8272173 139.295693,74.9691264 C143.37338,81.2737173 147.411632,87.6048082 151.446037,93.9373445 C151.603777,94.1845173 151.646579,94.5410627 151.64754,94.8470173 C151.661006,98.2684082 151.656197,101.689799 151.656197,105.326081 Z M112.67651,105.328008 C110.433037,105.32849 108.184273,105.416181 105.948976,105.278863 C105.206922,105.23309 104.500456,104.608172 103.77764,104.247772 C104.225853,103.691754 104.564899,102.91699 105.145365,102.624526 C106.354388,102.016472 106.543869,101.140526 106.535693,99.9162264 C106.487121,92.8426536 106.48664,85.7685991 106.537617,78.6950264 C106.547716,77.2996809 106.364006,76.2700355 104.772174,75.9289082 C104.388884,75.8465173 103.850258,75.2582173 103.856029,74.9113082 C103.863243,74.5007991 104.302319,73.9004536 104.699556,73.7371173 C105.459403,73.4244173 106.320243,73.2312082 107.142609,73.2186809 C110.704754,73.1647173 114.268823,73.1685718 117.831449,73.2128991 C118.658624,73.2234991 119.518502,73.3786445 120.292296,73.6619536 C120.665968,73.79879 121.099273,74.38709 121.100235,74.7720627 C121.101197,75.2254536 120.744838,75.9925082 120.402426,76.0816445 C118.612937,76.54949 118.364785,77.8007718 118.371518,79.3633082 C118.401334,86.0398627 118.377289,92.7173809 118.389311,99.3944173 C118.392197,100.851917 118.480205,102.234735 120.364434,102.656808 C120.724159,102.737754 121.219983,103.785226 121.074747,104.164899 C120.883342,104.666954 120.13696,105.248026 119.602182,105.275972 C117.299075,105.396908 114.985869,105.327526 112.67651,105.328008 Z M17.6534176,74.5518236 C17.2133794,75.0885691 17.1200817,75.3130964 16.9599366,75.3819964 C14.3245168,76.5157145 14.5534328,78.7662873 14.5827687,81.0688964 C14.6616389,87.2751964 14.5548756,93.4843873 14.6597153,99.6897236 C14.6794328,100.832596 15.3570435,101.960533 15.7105168,103.10196 C15.8749901,103.633405 16.2428908,104.30506 16.0562954,104.684251 C15.875471,105.05236 15.1031198,105.297605 14.5870969,105.303387 C10.3694634,105.351087 6.14990611,105.374215 1.93323435,105.282669 C1.28207405,105.268215 0.643898473,104.629805 -4.8091603e-05,104.280487 C0.423638931,103.700378 0.887722901,103.145324 1.26091374,102.53486 C1.78799771,101.672887 2.65653206,100.776705 2.67192137,99.8834145 C2.78926489,92.9514964 2.71664656,86.0166873 2.75223435,79.0828418 C2.75944809,77.6123327 2.24919618,76.6274964 0.906959542,75.9519873 C0.468845038,75.7313145 0.0797839695,75.0105145 0.0634328244,74.5060509 C0.0538145038,74.2135873 0.822318321,73.6460055 1.25754733,73.6281782 C5.83538702,73.4426782 10.4165931,73.2793418 14.9968374,73.27886 C15.8216084,73.27886 16.6468603,74.0468782 17.6534176,74.5518236 Z M50.907126,72.7979091 C51.0254313,74.2298727 51.6770725,75.6960455 49.503813,76.2400182 C49.102729,76.3407182 48.713187,77.4137273 48.7088588,78.0405727 C48.6549962,85.5068273 48.7103015,92.9740455 48.6487443,100.4403 C48.6343168,102.169064 49.5990344,102.818073 51.0134084,103.161609 L51.0134084,105.662245 C48.2846908,105.907009 45.7488206,105.424227 43.5096756,103.885782 C41.9995992,102.848427 40.5885916,101.636173 39.2612634,100.367064 C37.2813321,98.4744818 36.3964466,95.9772182 36.1675305,93.3320364 C35.6914237,87.8243727 35.5485916,82.3094818 39.5623168,77.7991818 C41.9813244,75.0807636 45.0981412,73.5905 48.7242481,73.1848091 C49.4220573,73.1072364 50.1097672,72.9419727 50.907126,72.7979091 Z M52.1536603,72.8936945 C64.4492405,73.4453764 67.8887519,82.8287855 67.5189275,89.7780491 C66.9336527,100.779404 60.3465458,105.780195 52.4369198,105.662149 C52.1180725,104.316913 51.8997366,103.247758 53.604584,102.349167 C54.3014313,101.982022 54.5592023,100.288913 54.5736298,99.1932582 C54.6601947,92.5851218 54.7164618,85.9731309 54.5341947,79.3693309 C54.4995687,78.1108218 54.8876679,76.1315127 52.6321718,75.5885036 C52.2839885,75.5046673 52.3089962,73.8640764 52.1536603,72.8936945 Z M26.8308824,105.327189 C24.5869282,105.327189 22.3381649,105.408135 20.1023863,105.276116 C19.4569969,105.237571 18.6807985,104.702271 18.2994321,104.159262 C18.1349588,103.925098 18.9020198,103.117571 19.1006382,102.522044 C19.3204168,101.865807 19.6416687,101.068398 19.4545924,100.480098 C18.4388977,97.2856436 17.1644702,94.1697255 16.2449588,90.9502164 C15.9852641,90.0400618 16.3368137,88.6765164 16.8985237,87.8593527 C18.8419053,85.0325255 21.0459435,82.3868618 23.0633863,79.6086982 C24.2839511,77.9276345 23.946829,77.1398618 22.1448366,76.3438982 C21.5210885,76.0682982 20.7689359,75.4414527 20.6280275,74.8439982 C20.3303405,73.5816345 21.4412565,73.5609164 22.2968061,73.5556164 C25.5343328,73.5368255 28.7733023,73.5108073 32.0079435,73.60958 C32.5537832,73.6259618 33.0813481,74.2460618 33.6170885,74.5871891 C33.1419435,75.2072891 32.7706763,75.9647073 32.170974,76.4205073 C30.4844015,77.7021436 28.5559282,78.6937255 26.9919893,80.1006345 C23.975684,82.8151982 24.8192107,82.3266345 26.3393863,86.2736891 C27.6998977,89.8058982 29.3138519,93.2427073 30.8936611,96.68578 C31.896371,98.8713073 32.4167221,101.361825 34.7203099,102.788489 C35.092058,103.018798 35.2315237,104.003153 35.0968672,104.543271 C35.0093405,104.894035 34.2365084,105.276598 33.7594397,105.292498 C31.4520046,105.369589 29.1407221,105.327189 26.8308824,105.327189 Z M172.514247,72.79232 C172.737392,74.3273927 173.021613,75.6201109 171.170567,76.4522109 C170.609338,76.7042018 170.334254,78.1164109 170.325598,79.0005473 C170.260193,85.8679018 170.243361,92.7367018 170.339063,99.6035745 C170.356376,100.861602 170.499689,102.240084 172.070361,102.998947 C172.59985,103.254793 172.604178,104.601956 172.928315,105.727002 C167.916208,105.752538 164.318956,103.767929 161.309865,100.482411 C158.823529,97.7678473 158.064163,94.44812 158.024727,90.8980836 C157.988659,87.7079655 157.748682,84.4720745 159.234231,81.4876927 C161.541185,76.8526018 165.061972,73.8190745 170.362628,73.1878927 C171.053705,73.1055018 171.734682,72.9378291 172.514247,72.79232 Z M173.996285,105.715824 C173.701484,104.145096 173.597125,102.928024 175.31111,102.368151 C175.619377,102.267451 175.797316,101.367415 175.811263,100.830187 C175.86753,98.7193418 175.816553,96.6065691 175.841079,94.49476 C175.855988,93.2396236 176.054125,91.9970145 174.228568,91.7170782 C173.898179,91.6664873 173.571637,90.53566 173.566827,89.9006236 C173.564904,89.6298418 174.389194,89.1215236 174.84366,89.1142964 C178.795347,89.0526236 182.748957,89.0603327 186.701125,89.1080327 C187.14982,89.1133327 187.963049,89.4775873 187.971224,89.6992236 C187.996232,90.36076 187.751446,91.0502418 187.524453,91.6982873 C187.230614,92.5361691 186.60398,93.3306873 186.558293,94.1676055 C186.42556,96.5998236 186.511163,99.0436055 186.511163,101.858387 C183.470331,103.124605 180.38814,104.503569 177.226118,105.663787 C176.304682,106.002024 175.154331,105.715824 173.996285,105.715824 Z M131.691593,64.6256464 L122.352685,64.6256464 C122.533028,61.6899282 122.719624,58.6405009 122.916799,55.4267736 C121.947273,55.3583555 121.259082,55.3096918 120.482883,55.2542827 L120.482883,53.4200009 C121.215799,53.3785645 121.859746,53.3414645 122.904295,53.2817191 C122.708082,50.5098191 122.515234,47.7812827 122.29257,44.6417555 C125.10112,44.6538009 128.449738,44.5588827 131.962349,45.0137191 C129.443792,46.9318373 130.390715,49.4228373 130.295013,51.6401645 C130.20941,53.6165827 130.257982,55.5997464 130.282028,57.5795373 C130.310402,59.9047918 129.655876,62.3933827 132.143654,64.1626191 C131.992647,64.3168009 131.84212,64.4714645 131.691593,64.6256464 Z M81.2842351,65.1665836 C81.124571,63.9581836 80.8778611,62.8996291 82.5702046,62.8206109 C82.9029985,62.8051927 83.5310748,62.0901745 83.4666321,61.8420382 C83.2396397,60.9641655 82.9987008,59.8150291 82.3513878,59.3732018 C80.6099908,58.1831109 78.7147008,57.16792 76.7732427,56.3338927 C73.5833267,54.9636018 73.3096855,52.3034836 73.6900901,49.4959291 C74.0089374,47.1417655 75.2362351,45.2761655 77.8057695,44.68642 C78.7406702,44.4720109 79.6496015,44.1467836 80.6196092,43.8572109 C80.8167847,45.0082745 81.0250214,45.9550473 79.6529679,46.6517564 C78.5665786,47.2034382 78.3232351,48.3675109 79.5519756,49.1133655 C81.1890137,50.1063927 82.9140595,50.9736655 84.6621893,51.7585473 C88.117571,53.3090382 90.5760137,56.8378745 89.0846931,60.6514655 C87.9805099,63.4763655 85.0348992,65.2624655 81.2842351,65.1665836 Z M154.773398,44.6115455 C158.40191,44.7580182 161.763032,44.3797909 165.247269,45.1174545 C162.772475,46.8250182 163.618887,49.1888182 163.569834,51.2943636 C163.503467,54.1361273 163.542902,56.9803 163.558292,59.8235091 C163.565024,61.0791273 163.271666,62.3410091 164.67546,63.2882636 C165.417994,63.7893545 165.29536,64.8059909 164.049307,64.8291182 C161.278269,64.8797091 158.505307,64.8686273 155.73475,64.8161091 C155.401475,64.8098455 154.846498,64.4321 154.802253,64.1603545 C154.740696,63.7777909 155.030208,63.3186182 155.224979,62.9191909 C155.463513,62.4287 155.988673,61.9695273 155.995406,61.4915636 C156.054559,56.9962 156.101208,52.4974636 155.976169,48.0049909 C155.947315,46.9517364 155.256719,45.9167909 154.773398,44.6115455 Z M1.62453435,64.84444 C1.62453435,64.2956491 1.46919847,63.6765127 1.64858015,63.5546127 C3.30485496,62.4339036 2.66812214,60.7624764 2.70707634,59.2943764 C2.77680916,56.6525673 2.81287786,54.0040127 2.6998626,51.3650945 C2.60608397,49.1810127 2.27761832,47.0065673 2.03956489,44.6943218 C2.00445802,44.6972127 2.37716794,44.6365036 2.74939695,44.6350582 C5.17609924,44.6263855 7.60232061,44.6307218 10.2507252,44.6307218 C10.2507252,49.3270036 10.2031145,53.8652491 10.274771,58.4015673 C10.3021832,60.1375582 9.48654962,62.2141945 11.8103359,63.2958764 C12.0277099,63.3970582 12.2143053,64.1506218 12.0796489,64.3023945 C11.8194733,64.5958218 11.3217252,64.8164945 10.9191985,64.8222764 C7.88942748,64.8632309 4.85869466,64.84444 1.62453435,64.84444 Z M133.350946,45.4660982 C134.572953,44.4961982 142.252221,44.2658891 144.371618,45.0430618 C144.282648,45.32878 144.261007,45.8211982 144.090763,45.8794982 C142.033404,46.5843982 142.562892,48.2909982 142.554236,49.7687345 C142.534518,53.0687073 142.534518,56.3691618 142.555679,59.6696164 C142.563373,60.85778 142.242121,62.1129164 143.7849,62.8510618 C144.278801,63.0876345 144.35719,64.1953345 144.63516,64.9291436 C139.292182,65.9096436 136.351381,64.6096982 135.322221,60.9772709 C135.131297,60.3032073 135.052908,59.5775891 135.044732,58.8741345 C135.013473,56.1682436 135.053869,53.4613891 135.024534,50.7554982 C135.003854,48.8229255 135.639144,46.6875073 133.350946,45.4660982 Z M42.6265695,64.8441509 C39.9517145,64.8441509 37.3927603,64.8687236 34.8352489,64.8176509 C34.450516,64.8099418 33.8387908,64.5194055 33.7536687,64.2332055 C33.6546,63.9007509 33.9162183,63.1785055 34.1999588,63.0614236 C35.4580351,62.5429873 35.2074779,61.5104509 35.2108443,60.5569327 C35.2223863,57.1196418 35.2185389,53.6823509 35.2195008,50.24506 C35.2204626,47.3589691 35.2195008,47.3589691 33.6772031,45.4162782 C34.6327832,44.52106 38.299287,44.2652145 42.6265695,44.8130418 L42.6265695,64.8441509 Z M32.0417038,64.7802618 L21.7794366,64.7802618 C21.817429,64.2565255 21.6895053,63.5386164 21.9063985,63.4118982 C23.9041237,62.2439709 23.2582534,60.3297073 23.3106733,58.6462345 C23.3789634,56.4664891 23.3818489,54.2809618 23.3125969,52.1012164 C23.2351695,49.6386436 24.1609328,46.9438345 21.2537954,45.0681164 C21.4408718,44.9746436 21.628429,44.8816527 21.8159863,44.78818 L31.9445588,44.78818 C31.9445588,45.0555891 32.0518031,45.4535709 31.9282076,45.5470436 C29.9689557,47.0387527 30.4614137,49.1645345 30.4489099,51.1520345 C30.4325588,53.7967345 30.3859099,56.4433618 30.4676656,59.0856527 C30.5147954,60.6091618 29.7737038,62.4439255 31.8579939,63.3815436 C32.0671924,63.4754982 31.9796656,64.2295436 32.0417038,64.7802618 Z M52.6080779,64.8499809 C52.6960855,64.2086809 52.607116,63.4951082 52.8413221,63.3650173 C54.6183069,62.37729 54.2133756,60.7174264 54.2258794,59.2001809 C54.2513679,56.0307809 54.199429,52.8608991 54.2484824,49.6919809 C54.2715664,48.21569 54.3273527,46.8010718 52.9120168,45.8273173 C52.7114748,45.6895173 52.7124366,45.2578082 52.5628718,44.7779173 L61.3424748,44.7779173 L61.3424748,47.60619 C61.3429557,51.8982264 61.2914977,56.1912264 61.3896046,60.4808536 C61.4078794,61.2744082 61.999887,62.0694082 62.3831771,62.8359809 C62.6226733,63.31539 62.9670092,63.7427627 63.2642153,64.1932627 C62.7712763,64.4120082 62.2821847,64.8104718 61.7849176,64.82059 C58.8243985,64.8803355 55.8614748,64.8499809 52.6080779,64.8499809 Z M120.733152,64.8451627 C117.762534,64.8451627 114.994381,64.8644355 112.22719,64.8239627 C111.820335,64.8181809 111.109541,64.5758264 111.07732,64.3618991 C111.013358,63.9359718 111.295656,63.4411445 111.485618,62.9969082 C111.788595,62.2881536 112.401763,61.6025264 112.416671,60.8971445 C112.506121,56.6662991 112.546999,52.4296718 112.400801,48.2021991 C112.366656,47.2130264 111.548618,46.2508355 111.07203,45.2356445 C111.966534,44.5153264 116.556877,44.2527355 120.736518,44.8034536 C120.736518,45.1132627 120.866847,45.6230264 120.71632,45.7280627 C118.956648,46.9557355 119.64003,48.7731536 119.593862,50.3713445 C119.516434,53.0806082 119.547213,55.7942082 119.581839,58.5053991 C119.604923,60.2939082 119.129778,62.2014264 120.71103,63.6786809 C120.874541,63.8314173 120.733152,64.3108264 120.733152,64.8451627 Z M100.838618,43.95502 C101.05503,45.0550109 101.230083,46.0249109 99.8286939,46.6744018 C99.3434496,46.8989291 99.026526,47.9680836 99.0140221,48.6585291 C98.940442,52.6778564 98.9062969,56.7024836 99.0414344,60.71892 C99.0707702,61.5789655 99.8537015,62.4139564 100.288931,63.2605109 L100.884305,63.0152655 L100.884305,64.9565109 C97.1966405,65.7519927 92.5567626,62.4525018 91.5949305,57.6955109 C90.9759916,54.6335564 91.2202969,51.3942927 92.9434191,48.4696564 C94.6978008,45.49202 97.628984,44.6840109 100.838618,43.95502 Z M177.610562,52.2593973 C178.069356,50.6510882 178.416577,49.4340155 178.855173,47.8965336 C179.67802,54.22907 177.120508,59.4514973 175.466157,64.8772518 C175.229066,64.9051973 174.991493,64.9326609 174.753921,64.9601245 C174.164798,63.5296064 173.527585,62.1169155 172.996173,60.6651973 C171.408669,56.3273882 169.891379,51.9630791 168.265402,47.6402064 C168.050913,47.0697336 167.357913,46.6837973 166.896234,46.2029427 C166.520638,45.8117064 166.159951,45.4064973 165.451081,44.63607 C168.618394,44.63607 171.189371,44.5401882 173.743035,44.7078609 C174.333119,44.7468882 175.091524,45.5886245 175.377669,46.2357064 C176.179837,48.0502336 176.775692,49.9558245 177.610562,52.2593973 Z M76.0317183,31.6031291 L116.665756,31.6031291 C116.733085,33.5631655 115.712581,33.9428382 113.96926,33.93272 C102.232505,33.8647836 90.494787,33.8512927 78.7585122,33.9457291 C76.9541153,33.9601836 76.4275122,33.1223018 76.0317183,31.6031291 Z M73.6457977,81.0277009 C75.8512786,83.31971 76.6976908,85.7760191 76.4553092,88.7753373 C76.221584,91.6662464 76.4134695,94.5908827 76.4004847,97.5010645 C76.3903855,99.6933373 77.1887061,101.352719 79.1998969,102.449819 C79.7745916,102.763483 80.0482328,103.631237 80.459416,104.244592 C79.7995992,104.606919 79.1546908,105.244365 78.4770802,105.280983 C76.1076069,105.408665 73.7217824,105.416374 71.3542328,105.275201 C70.6564237,105.233283 69.9966069,104.547655 69.319958,104.156901 C69.7470115,103.529574 70.0490267,102.534137 70.6232405,102.337555 C73.5404771,101.338746 73.5169122,98.8294373 73.5967443,96.5576645 C73.7549656,92.0661555 73.6448359,87.5654918 73.6457977,83.0682009 L73.6457977,81.0277009 Z M127.120102,81.01315 C129.347224,83.3388864 130.191712,85.83085 129.929613,88.8841318 C129.671361,91.8950136 129.862285,94.9463682 129.888735,97.9798955 C129.905567,99.9577591 130.716873,101.365632 132.612644,102.258923 C133.216193,102.543195 133.428277,103.661495 133.819743,104.397714 C133.202247,104.710414 132.595331,105.264023 131.965331,105.291968 C129.600185,105.396523 127.223018,105.413386 124.861239,105.275105 C124.156216,105.233668 123.486781,104.577432 122.800995,104.203059 C123.168895,103.60705 123.412239,102.65305 123.925376,102.473332 C126.905132,101.429714 127.062873,98.9464227 127.097979,96.4693955 C127.171079,91.3664591 127.120102,86.2615955 127.120102,81.01315 Z M174.140127,72.6166973 C176.051288,73.0845427 178.016311,73.4030245 179.855334,74.0698609 C181.213921,74.5622791 182.167578,74.2625882 183.285227,73.5461245 C183.875311,73.1678973 184.906395,72.9154245 185.450311,73.1866882 C185.993746,73.45747 186.441479,74.4398973 186.4737,75.1317882 C186.593929,77.6960245 186.643944,80.2776064 186.462639,82.8341336 C186.399639,83.7221245 185.756654,84.7854973 185.042975,85.3130882 C184.715471,85.5559245 183.392471,84.8741518 182.853364,84.2988609 C182.124295,83.52217 181.632799,82.4819245 181.185547,81.4884155 C179.933723,78.7121791 178.207715,76.6075973 175.02886,75.8415064 C174.341631,75.6757609 173.96315,74.2250064 173.442799,73.3664064 C173.675082,73.1168245 173.907845,72.8667609 174.140127,72.6166973 Z M98.5867282,92.6382664 C96.0604763,89.70303 94.979858,86.9542573 95.3992168,83.6094755 C95.8166519,80.2830027 95.2164687,77.3188573 91.6254687,75.8358209 C91.3123924,75.7066936 91.0531786,74.91073 91.1411863,74.5060027 C91.2190947,74.1460845 91.8082168,73.6517391 92.1828504,73.6421027 C95.151545,73.5659755 98.1236061,73.5457391 101.091339,73.6319845 C101.571293,73.6459573 102.397988,74.2506391 102.418186,74.6187482 C102.448003,75.1468209 101.981515,76.0849209 101.557827,76.1952573 C98.6377053,76.9546027 98.4828504,79.0721936 98.5588351,81.52513 C98.6680031,85.05493 98.5867282,88.5905118 98.5867282,92.6382664 Z M61.6460771,57.2526236 C64.8643672,53.0261145 65.4284817,48.9301782 61.7336038,44.8472509 C65.3573061,44.2213691 68.3298481,44.8260509 70.2765962,47.3021145 C71.812642,49.2549236 71.915558,52.0379055 70.3617183,54.0832236 C68.4303595,56.6257782 65.5087947,57.4944964 61.6460771,57.2526236 Z M10.8603824,57.4890518 C11.3677489,55.0423791 12.9615046,53.4017882 12.7696191,51.0196791 C12.5887947,48.7787427 12.3372756,46.7430609 10.4540084,44.7661609 C13.9921076,44.4337064 16.8203748,44.6105336 18.7017183,47.04227 C20.3228863,49.1376973 20.3421229,51.9144155 19.0787565,54.0450155 C17.4224817,56.8371518 14.2373748,57.0481882 10.8603824,57.4890518 Z M151.66014,92.2655318 C149.019911,89.3847409 148.53611,86.3073682 148.916034,83.0252227 C149.284415,79.8408864 148.321621,77.4009591 145.320224,75.9241864 C144.95569,75.7444682 144.582018,75.1185864 144.613278,74.73265 C144.643095,74.3655045 145.187973,73.7555227 145.524614,73.7429955 C148.549576,73.6316955 151.579347,73.5859227 154.60527,73.6403682 C155.041942,73.6485591 155.831125,74.30865 155.814774,74.6333955 C155.787843,75.1470136 155.321354,75.9131045 154.860637,76.0836682 C152.07469,77.1152409 151.725545,79.4400136 151.676973,81.8871682 C151.610125,85.2300227 151.66014,88.5752864 151.66014,92.2655318 Z M145.435837,65.0240618 C145.209806,63.7188164 145.104005,62.62268 146.910325,62.2386709 C148.7556,61.8459891 148.801287,60.04688 148.862844,58.6259982 C148.99702,55.53128 149.020585,52.4182527 148.825333,49.3293164 C148.762814,48.3425527 147.888027,47.3967436 147.345073,46.4552709 C147.053638,45.9498436 146.6766,45.49308 146.157211,44.7578255 L153.563318,44.7578255 C153.313241,45.3971982 153.266592,46.06018 152.953035,46.2312255 C150.878844,47.3644618 150.780737,49.2209073 150.847585,51.2503255 C150.928379,53.6888073 150.985127,56.1393345 150.840852,58.5720345 C150.58789,62.8351618 149.56402,64.1365527 145.435837,65.0240618 Z M172.941444,64.8461745 C170.795116,64.8461745 169.14846,64.8958018 167.507574,64.8167836 C166.991551,64.7922109 166.491879,64.4226564 165.984513,64.2111382 C166.279795,63.6729473 166.480818,62.7656836 166.886711,62.6620927 C168.406406,62.2727836 168.303971,61.1814655 168.304933,60.0694291 C168.306856,56.90822 168.305414,53.7474927 168.305414,50.1805927 C169.752009,53.1211291 170.530131,55.7749836 170.30891,58.6976927 C170.184834,60.33732 170.271879,61.9292473 172.021452,62.9116745 C172.447063,63.1506564 172.547093,63.9716745 172.941444,64.8461745 Z M101.698832,43.9107891 C102.961237,44.3212982 103.993282,44.8855073 105.04745,44.93128 C105.975618,44.9712709 106.928794,44.4311527 108.084916,44.08328 C108.084916,46.6455891 108.120023,48.9462709 108.053656,51.24358 C108.041153,51.6714345 107.69874,52.3334527 107.366427,52.4384891 C107.051908,52.5387073 106.331496,52.1522891 106.167985,51.8024891 C105.140267,49.6020255 104.573748,47.1235527 101.954679,46.0346436 C101.670939,45.9165982 101.792611,44.8194982 101.698832,43.9107891 Z M73.6450282,57.4996036 C74.8021122,57.1710036 75.296013,57.3796309 75.7019061,58.5803218 C76.3540282,60.5085582 77.2826771,62.3491036 79.6088679,62.9875127 C80.0657382,63.1127855 80.2407916,64.2681855 80.7587382,65.42214 C79.2231733,65.1609945 78.3036618,64.9244218 77.3735702,64.8719036 C76.6339214,64.8299855 75.8567611,64.9210491 75.1416389,65.1181127 C74.0706389,65.4129855 73.6546466,64.9947673 73.6488756,63.9916218 C73.6363718,61.8292218 73.6450282,59.6668218 73.6450282,57.4996036 Z M50.3836489,64.7794909 L43.2872519,64.7794909 C43.6493817,63.9671455 43.7984656,62.9553273 44.2038779,62.8387273 C46.2232443,62.2566909 47.5044046,61.0140818 48.292626,59.1272818 C48.4393053,58.777 48.7720992,58.5047727 49.1702977,58.0070545 C51.1954351,60.1232 49.7825038,62.4942273 50.3836489,64.7794909 Z M81.2401351,43.7609436 C83.7077153,44.0119709 85.4822954,46.2909709 87.4415473,43.67518 C87.7820359,44.4166982 88.2143794,44.9544073 88.2523718,45.5181345 C88.354326,47.0242982 88.353845,48.5468436 88.2456389,50.0520436 C88.2134176,50.5001345 87.6897,50.9130527 87.3915321,51.3418709 C87.0337305,51.0373618 86.5225168,50.8041618 86.3450588,50.41678 C85.4712344,48.5102255 84.6012573,46.7144891 82.2837229,46.0852345 C81.8340664,45.9628527 81.6719977,44.7790255 81.2401351,43.7609436 Z M43.416955,44.7190391 L49.7116649,44.7190391 L49.7116649,51.25153 C49.0513672,50.7644118 48.5112985,50.5437391 48.2487183,50.1409391 C47.1685809,48.4825209 46.2130008,46.7580936 43.9219168,46.48683 C43.7059855,46.4612936 43.6088405,45.4306845 43.416955,44.7190391 Z M47.1552115,50.2370136 L47.1552115,58.3787773 C46.9450511,58.4963409 46.7353718,58.6143864 46.5252115,58.73195 C45.536929,57.4589864 43.7238756,56.16145 43.761387,54.9193227 C43.8118832,53.2247682 45.2724252,51.5726136 46.1284557,49.90215 C46.470387,50.0139318 46.8127992,50.1252318 47.1552115,50.2370136 Z M101.847772,65.2199209 L101.847772,63.0686027 C103.431428,62.3926118 105.363268,62.1020755 106.068291,60.0027936 C106.232764,59.5127845 107.090237,59.2559755 107.628863,58.8922027 C107.692825,59.7074391 108.105932,60.7394936 107.759192,61.30033 C106.472741,63.3813027 104.727016,64.9958755 101.847772,65.2199209 Z M142.360667,27.3313773 C144.145827,26.87365 144.977812,27.9967682 145.647247,29.3473045 C146.398438,30.8635864 146.417194,32.3408409 145.310606,33.7198045 C144.696957,34.48445 144.075133,35.2428318 143.457156,36.0041045 C143.208041,35.8239045 142.958927,35.6437045 142.709812,35.4639864 C143.201789,34.60105 143.545644,33.5950136 144.213637,32.9031227 C146.030537,31.0230682 145.80066,29.1362682 143.438881,27.81705 C143.100797,27.6281773 142.746362,27.4686955 142.392408,27.3010227 C142.386156,27.3063227 142.360667,27.3313773 142.360667,27.3313773 Z M28.7371374,34.4217173 C29.1742901,34.9719536 29.541229,35.6137355 30.079855,36.0333991 C30.3385878,36.2352809 30.9243435,36.0305082 31.3595725,35.9856991 C31.9996718,35.91969 32.6647786,35.6975718 33.2630382,35.81899 C33.5097481,35.8690991 33.8314809,36.9666809 33.7425115,37.0264264 C33.1957099,37.3945355 32.4142214,37.9625991 31.946771,37.7968536 C30.4044733,37.2490264 29.1007099,36.2767173 28.338458,34.8216264 C28.4711908,34.6881627 28.6044046,34.5551809 28.7371374,34.4217173 Z M164.30275,35.4343545 C163.268299,36.2452545 162.285307,37.1448091 161.161406,37.8029727 C160.886322,37.9639 160.01394,37.4430545 159.681147,37.0243545 C159.508979,36.8080182 159.839368,35.7822273 160.079345,35.7277818 C160.616528,35.6068455 161.257108,35.8096909 161.816895,35.9961545 C162.037635,36.0693909 162.15546,36.4519545 162.263666,36.6114364 C163.035536,36.1994818 163.697276,35.8458273 164.358536,35.4921727 C164.358055,35.4912091 164.30275,35.4343545 164.30275,35.4343545 Z M48.6605267,28.3900764 C48.1243053,29.8509491 46.9316336,31.3050764 48.9726412,32.7910036 C48.7360305,32.91724 48.4999008,33.0434764 48.2632901,33.1692309 C47.4914198,32.22824 46.7195496,31.2867673 45.9476794,30.3457764 C46.3718473,30.4464764 46.7964962,30.5476582 46.9576031,30.5857218 C47.5722137,29.7931309 48.1166107,29.0916036 48.6605267,28.3900764 Z" id="Combined-Shape" fill="#FFFFFF"></path>
                </g>
            </g>
        </g>
    </g>
</svg>